<?xml version="1.0" standalone="no"?>
<!DOCTYPE svg PUBLIC "-//W3C//DTD SVG 20010904//EN"
 "http://www.w3.org/TR/2001/REC-SVG-20010904/DTD/svg10.dtd">
<svg version="1.0" xmlns="http://www.w3.org/2000/svg"
 width="150.000000pt" height="62.000000pt" viewBox="0 0 150.000000 62.000000"
 preserveAspectRatio="xMidYMid meet">

<g transform="translate(0.000000,62.000000) scale(0.100000,-0.100000)"
fill="#000000" stroke="none">
<path d="M280 463 c-12 -15 -12 -16 0 -6 9 8 19 9 31 3 11 -7 20 -7 24 0 3 5
2 10 -4 10 -5 0 -16 2 -24 5 -7 3 -20 -2 -27 -12z"/>
<path d="M368 453 c-10 -2 -18 -8 -18 -12 0 -4 -9 -17 -20 -29 -13 -14 -16
-22 -8 -22 9 0 9 -3 -2 -11 -13 -9 -13 -10 0 -6 8 2 14 9 13 15 -2 6 11 25 28
41 17 17 29 30 27 30 -2 -1 -11 -3 -20 -6z"/>
<path d="M746 401 c-16 -18 -21 -66 -10 -96 9 -23 51 -37 73 -25 23 12 33 2
21 -21 -7 -12 -24 -19 -52 -21 -63 -5 -62 -28 1 -28 77 0 91 19 91 123 l0 83
-54 2 c-40 1 -58 -3 -70 -17z m79 -51 c0 -28 -4 -36 -21 -38 -11 -2 -27 4 -34
13 -20 24 3 67 33 63 18 -2 22 -9 22 -38z"/>
<path d="M985 388 c20 -64 49 -118 64 -118 15 0 61 96 61 128 0 20 -20 13 -29
-10 -5 -13 -14 -36 -21 -53 l-12 -30 -20 53 c-12 29 -27 52 -35 52 -10 0 -12
-6 -8 -22z"/>
<path d="M1140 340 c0 -54 3 -70 14 -70 11 0 16 15 18 51 2 36 8 55 20 63 26
16 38 -2 42 -60 2 -34 7 -49 17 -49 18 0 25 86 9 115 -12 23 -59 27 -78 8 -9
-9 -12 -9 -12 0 0 7 -7 12 -15 12 -12 0 -15 -14 -15 -70z"/>
<path d="M275 344 c-11 -14 -19 -29 -17 -34 1 -6 -3 -10 -9 -10 -5 0 -7 -4 -4
-10 11 -17 24 -11 20 10 -3 13 2 20 12 20 9 0 13 3 10 7 -4 3 -2 12 5 20 6 7
9 15 7 17 -2 2 -13 -7 -24 -20z"/>
<path d="M283 300 c2 -8 15 -15 30 -15 21 -1 24 2 15 13 -9 10 -13 11 -20 0
-6 -10 -10 -10 -19 2 -9 13 -10 13 -6 0z"/>
<path d="M926 293 c-11 -11 -6 -23 9 -23 8 0 15 4 15 9 0 13 -16 22 -24 14z"/>
<path d="M1140 150 c-20 -12 -10 -19 14 -10 11 3 15 9 10 13 -6 3 -16 2 -24
-3z"/>
<path d="M237 142 c6 -4 13 -21 16 -37 l4 -30 2 32 c0 17 7 34 14 36 6 3 -1 6
-18 6 -16 0 -25 -3 -18 -7z"/>
<path d="M291 113 c1 -21 3 -30 6 -20 4 17 6 17 23 2 18 -16 18 -16 13 4 -3
12 -12 21 -19 21 -20 0 -17 18 4 23 13 4 11 5 -5 6 -20 1 -23 -4 -22 -36z"/>
<path d="M353 115 c0 -22 2 -30 4 -17 2 12 2 30 0 40 -3 9 -5 -1 -4 -23z"/>
<path d="M396 142 c7 -4 14 -18 17 -32 l4 -25 2 27 c0 14 7 29 14 31 6 3 -1 6
-18 6 -16 0 -25 -3 -19 -7z"/>
<path d="M452 115 c0 -22 2 -32 5 -22 2 9 11 17 18 17 7 0 16 -8 18 -17 3 -10
5 0 5 22 0 22 -2 32 -5 23 -2 -10 -11 -18 -18 -18 -7 0 -16 8 -18 18 -3 9 -5
-1 -5 -23z"/>
<path d="M597 143 c-3 -5 5 -8 18 -8 13 0 21 3 18 8 -2 4 -10 7 -18 7 -8 0
-16 -3 -18 -7z"/>
<path d="M677 142 c6 -4 13 -21 16 -37 l4 -30 2 32 c0 17 7 34 14 36 6 3 -1 6
-18 6 -16 0 -25 -3 -18 -7z"/>
<path d="M731 113 c1 -21 3 -30 6 -20 6 21 12 22 27 2 9 -12 11 -9 11 17 0 27
-4 34 -22 36 -21 3 -23 -1 -22 -35z m39 17 c0 -5 -7 -10 -15 -10 -8 0 -15 5
-15 10 0 6 7 10 15 10 8 0 15 -4 15 -10z"/>
<path d="M793 118 c1 -25 7 -33 21 -33 22 0 38 36 25 56 -6 10 -9 4 -9 -18 0
-43 -27 -45 -34 -3 -6 30 -6 30 -3 -2z"/>
<path d="M870 146 c0 -2 9 -6 20 -9 11 -3 18 -1 14 4 -5 9 -34 13 -34 5z"/>
<path d="M958 143 c6 -2 18 -2 25 0 6 3 1 5 -13 5 -14 0 -19 -2 -12 -5z"/>
<path d="M1070 145 c0 -5 5 -17 10 -25 9 -13 11 -13 20 0 5 8 10 20 10 25 0 6
-5 3 -10 -5 -9 -13 -11 -13 -20 0 -5 8 -10 11 -10 5z"/>
<path d="M1190 118 c0 -21 2 -38 4 -38 9 0 12 50 5 62 -6 8 -9 -1 -9 -24z"/>
<path d="M861 114 c0 -11 3 -14 6 -6 3 7 2 16 -1 19 -3 4 -6 -2 -5 -13z"/>
<path d="M1130 100 c0 -14 6 -20 23 -19 16 1 18 2 5 6 -10 2 -18 8 -18 13 0 5
8 11 18 13 13 4 11 5 -5 6 -17 1 -23 -5 -23 -19z"/>
<path d="M1216 95 c4 -8 8 -15 10 -15 2 0 4 7 4 15 0 8 -4 15 -10 15 -5 0 -7
-7 -4 -15z"/>
<path d="M526 88 c3 -4 12 -8 20 -8 8 0 14 4 14 8 0 4 -9 8 -19 8 -11 0 -17
-4 -15 -8z"/>
<path d="M597 88 c2 -5 10 -8 18 -8 8 0 16 3 18 8 3 4 -5 7 -18 7 -13 0 -21
-3 -18 -7z"/>
<path d="M885 90 c-16 -7 -17 -9 -3 -9 9 -1 20 4 23 9 7 11 7 11 -20 0z"/>
<path d="M1016 88 c7 -10 34 -10 34 0 0 4 -9 8 -19 8 -11 0 -17 -4 -15 -8z"/>
</g>
</svg>
